<svg width="259" height="27" viewBox="0 0 259 27" fill="none" xmlns="http://www.w3.org/2000/svg">
<circle cx="9" cy="4" r="4" fill="#424242" fill-opacity="0.2"/>
<circle cx="137" cy="4" r="4" fill="#424242" fill-opacity="0.2"/>
<circle cx="9" cy="23" r="4" fill="#424242" fill-opacity="0.2"/>
<circle cx="137" cy="23" r="4" fill="#424242" fill-opacity="0.2"/>
<circle cx="4" cy="13" r="4" fill="#424242" fill-opacity="0.2"/>
<ellipse cx="132.5" cy="13" rx="4.5" ry="4" fill="#424242" fill-opacity="0.2"/>
<circle cx="20" cy="4" r="4" fill="#424242" fill-opacity="0.2"/>
<circle cx="148" cy="4" r="4" fill="#424242" fill-opacity="0.2"/>
<circle cx="20" cy="23" r="4" fill="#424242" fill-opacity="0.2"/>
<circle cx="148" cy="23" r="4" fill="#424242" fill-opacity="0.2"/>
<circle cx="15" cy="13" r="4" fill="#424242" fill-opacity="0.2"/>
<circle cx="143" cy="13" r="4" fill="#424242" fill-opacity="0.2"/>
<circle cx="31" cy="4" r="4" fill="#FB9400"/>
<circle cx="159" cy="4" r="4" fill="#FB9400"/>
<circle cx="31" cy="23" r="4" fill="#424242" fill-opacity="0.2"/>
<circle cx="159" cy="23" r="4" fill="#424242" fill-opacity="0.2"/>
<circle cx="25" cy="13" r="4" fill="#424242" fill-opacity="0.2"/>
<circle cx="154" cy="13" r="4" fill="#424242" fill-opacity="0.2"/>
<circle cx="41" cy="4" r="4" fill="#424242" fill-opacity="0.2"/>
<ellipse cx="169.5" cy="4" rx="3.5" ry="4" fill="#424242" fill-opacity="0.2"/>
<circle cx="41" cy="23" r="4" fill="#FB9400"/>
<ellipse cx="169.5" cy="23" rx="3.5" ry="4" fill="#FB9400"/>
<circle cx="36" cy="13" r="4" fill="#FB9400"/>
<circle cx="165" cy="13" r="4" fill="#FB9400"/>
<circle cx="52" cy="4" r="4" fill="#424242" fill-opacity="0.2"/>
<ellipse cx="180.5" cy="4" rx="3.5" ry="4" fill="#424242" fill-opacity="0.2"/>
<circle cx="52" cy="23" r="4" fill="#424242" fill-opacity="0.2"/>
<ellipse cx="180.5" cy="23" rx="3.5" ry="4" fill="#424242" fill-opacity="0.2"/>
<ellipse cx="46.5" cy="13" rx="3.5" ry="4" fill="#424242" fill-opacity="0.2"/>
<circle cx="175" cy="13" r="4" fill="#424242" fill-opacity="0.2"/>
<circle cx="62" cy="4" r="4" fill="#424242" fill-opacity="0.2"/>
<circle cx="191" cy="4" r="4" fill="#424242" fill-opacity="0.2"/>
<circle cx="62" cy="23" r="4" fill="#424242" fill-opacity="0.2"/>
<circle cx="191" cy="23" r="4" fill="#424242" fill-opacity="0.2"/>
<circle cx="57" cy="13" r="4" fill="#424242" fill-opacity="0.2"/>
<circle cx="186" cy="13" r="4" fill="#424242" fill-opacity="0.2"/>
<circle cx="73" cy="4" r="4" fill="#FB9400"/>
<circle cx="202" cy="4" r="4" fill="#FB9400"/>
<circle cx="73" cy="23" r="4" fill="#424242" fill-opacity="0.2"/>
<circle cx="202" cy="23" r="4" fill="#424242" fill-opacity="0.2"/>
<circle cx="68" cy="13" r="4" fill="#424242" fill-opacity="0.2"/>
<circle cx="197" cy="13" r="4" fill="#424242" fill-opacity="0.2"/>
<circle cx="84" cy="4" r="4" fill="#424242" fill-opacity="0.2"/>
<ellipse cx="212.5" cy="4" rx="3.5" ry="4" fill="#424242" fill-opacity="0.2"/>
<circle cx="84" cy="23" r="4" fill="#FB9400"/>
<ellipse cx="212.5" cy="23" rx="3.5" ry="4" fill="#FB9400"/>
<ellipse cx="78.5" cy="13" rx="3.5" ry="4" fill="#FB9400"/>
<circle cx="207" cy="13" r="4" fill="#FB9400"/>
<circle cx="94" cy="4" r="4" fill="#424242" fill-opacity="0.2"/>
<circle cx="223" cy="4" r="4" fill="#424242" fill-opacity="0.2"/>
<circle cx="94" cy="23" r="4" fill="#424242" fill-opacity="0.2"/>
<circle cx="223" cy="23" r="4" fill="#424242" fill-opacity="0.2"/>
<ellipse cx="89.5" cy="13" rx="3.5" ry="4" fill="#424242" fill-opacity="0.2"/>
<circle cx="218" cy="13" r="4" fill="#424242" fill-opacity="0.2"/>
<circle cx="105" cy="4" r="4" fill="#424242" fill-opacity="0.2"/>
<circle cx="234" cy="4" r="4" fill="#424242" fill-opacity="0.2"/>
<circle cx="105" cy="23" r="4" fill="#424242" fill-opacity="0.2"/>
<circle cx="234" cy="23" r="4" fill="#424242" fill-opacity="0.2"/>
<circle cx="100" cy="13" r="4" fill="#424242" fill-opacity="0.2"/>
<circle cx="228" cy="13" r="4" fill="#424242" fill-opacity="0.2"/>
<circle cx="116" cy="4" r="4" fill="#FB9400"/>
<circle cx="244" cy="4" r="4" fill="#FB9400"/>
<circle cx="116" cy="23" r="4" fill="#424242" fill-opacity="0.2"/>
<circle cx="244" cy="23" r="4" fill="#424242" fill-opacity="0.2"/>
<circle cx="111" cy="13" r="4" fill="#424242" fill-opacity="0.2"/>
<circle cx="239" cy="13" r="4" fill="#424242" fill-opacity="0.2"/>
<ellipse cx="126.5" cy="4" rx="4.5" ry="4" fill="#424242" fill-opacity="0.2"/>
<circle cx="255" cy="4" r="4" fill="#424242" fill-opacity="0.2"/>
<ellipse cx="126.5" cy="23" rx="4.5" ry="4" fill="#FB9400"/>
<circle cx="255" cy="23" r="4" fill="#FB9400"/>
<circle cx="122" cy="13" r="4" fill="#FB9400"/>
<circle cx="250" cy="13" r="4" fill="#FB9400"/>
</svg>
