<svg width="28" height="29" viewBox="0 0 28 29" fill="none" xmlns="http://www.w3.org/2000/svg">
<g clip-path="url(#clip0_234_1804)">
<path d="M1.48838 14.9509L5.49945 17.8804L3.97615 22.5979C3.72998 23.3296 3.72686 24.1212 3.96726 24.8548C4.20766 25.5884 4.6787 26.2246 5.31017 26.6687C5.93082 27.127 6.68294 27.3725 7.45446 27.3687C8.22599 27.3648 8.97562 27.1118 9.59165 26.6473L13.5137 23.7606L17.4369 26.6439C18.0564 27.0996 18.8045 27.3471 19.5736 27.3508C20.3426 27.3546 21.0931 27.1144 21.717 26.6647C22.3409 26.2151 22.8062 25.5792 23.046 24.8485C23.2857 24.1177 23.2876 23.3298 23.0513 22.5979L21.528 17.8804L25.539 14.9509C26.1578 14.4986 26.6177 13.8623 26.8532 13.1329C27.0886 12.4035 27.0876 11.6183 26.8502 10.8896C26.6127 10.1608 26.1511 9.52577 25.5312 9.07506C24.9112 8.62435 24.1647 8.38108 23.3983 8.37999H18.4712L16.9761 3.71994C16.741 2.9864 16.2789 2.3465 15.6567 1.89249C15.0344 1.43849 14.284 1.19385 13.5137 1.19385C12.7434 1.19385 11.993 1.43849 11.3708 1.89249C10.7485 2.3465 10.2865 2.9864 10.0513 3.71994L8.55621 8.37999H3.63363C2.86718 8.38108 2.12068 8.62435 1.50075 9.07506C0.880827 9.52577 0.419185 10.1608 0.181766 10.8896C-0.0556524 11.6183 -0.0567032 12.4035 0.178764 13.1329C0.414231 13.8623 0.874171 14.4986 1.49289 14.9509H1.48838Z" fill="#FB9400"/>
</g>
<defs>
<clipPath id="clip0_234_1804">
<rect width="27.0409" height="27.0409" fill="white" transform="translate(-0.00634766 0.979492)"/>
</clipPath>
</defs>
</svg>
