<svg width="20" height="20" viewBox="0 0 20 20" fill="none" xmlns="http://www.w3.org/2000/svg">
<path d="M12.0154 4.57512C11.6187 4.50184 11.2543 4.755 11.1788 5.14224C11.1033 5.52947 11.3573 5.90754 11.7432 5.98332C12.9051 6.20984 13.8022 7.10922 14.0296 8.27508V8.27592C14.0943 8.61152 14.3898 8.85552 14.73 8.85552C14.7757 8.85552 14.8213 8.85135 14.8678 8.84303C15.2537 8.76558 15.5077 8.38834 15.4322 8.00027C15.0927 6.25897 13.7524 4.91406 12.0154 4.57512" fill="#212121"/>
<path d="M11.9635 1.67336C11.7776 1.64671 11.5909 1.70167 11.4423 1.81992C11.2896 1.93984 11.1942 2.11305 11.1735 2.30709C11.1295 2.69932 11.4125 3.05407 11.8042 3.09821C14.5056 3.39967 16.6053 5.50406 16.909 8.21386C16.9497 8.57695 17.2543 8.85093 17.6178 8.85093C17.6452 8.85093 17.6717 8.84926 17.6991 8.84593C17.8891 8.82511 18.0585 8.73101 18.178 8.58111C18.2966 8.43122 18.3506 8.24468 18.329 8.05397C17.9506 4.67296 15.3338 2.04893 11.9635 1.67336" fill="#212121"/>
<path fill-rule="evenodd" clip-rule="evenodd" d="M9.19295 10.8103C12.5172 14.1336 13.2713 10.2889 15.3879 12.404C17.4284 14.444 18.6012 14.8527 16.0159 17.4373C15.692 17.6975 13.6345 20.8285 6.40367 13.5997C-0.828061 6.37 2.30116 4.31037 2.56148 3.98662C5.15306 1.39487 5.55472 2.57449 7.59525 4.61444C9.71181 6.73041 5.86872 7.48701 9.19295 10.8103Z" fill="#212121"/>
</svg>
