<svg width="25" height="24" viewBox="0 0 25 24" fill="none" xmlns="http://www.w3.org/2000/svg">
<path fill-rule="evenodd" clip-rule="evenodd" d="M18.6439 8.3818H22.875C22.875 4.98459 20.8394 3 17.3906 3H8.35944C4.91056 3 2.875 4.98459 2.875 8.33847V15.6615C2.875 19.0154 4.91056 21 8.35944 21H17.3906C20.8394 21 22.875 19.0154 22.875 15.6615V15.3495H18.6439C16.6802 15.3495 15.0883 13.7975 15.0883 11.883C15.0883 9.96849 16.6802 8.41647 18.6439 8.41647V8.3818ZM18.6439 9.87241H22.1283C22.5407 9.87241 22.875 10.1983 22.875 10.6004V13.131C22.8702 13.5311 22.5387 13.8543 22.1283 13.8589H18.7239C17.7298 13.872 16.8605 13.2084 16.635 12.2643C16.5221 11.6783 16.6806 11.0736 17.0681 10.6122C17.4555 10.1509 18.0323 9.88007 18.6439 9.87241ZM18.795 12.533H19.1239C19.5461 12.533 19.8883 12.1993 19.8883 11.7877C19.8883 11.3761 19.5461 11.0424 19.1239 11.0424H18.795C18.5931 11.0401 18.3986 11.1166 18.255 11.255C18.1114 11.3934 18.0305 11.5821 18.0306 11.779C18.0305 12.1921 18.3714 12.5282 18.795 12.533ZM7.61278 8.3818H13.2572C13.6794 8.3818 14.0217 8.04812 14.0217 7.63649C14.0217 7.22487 13.6794 6.89119 13.2572 6.89119H7.61278C7.19403 6.89116 6.8532 7.2196 6.84833 7.62783C6.84831 8.04087 7.18915 8.37705 7.61278 8.3818Z" fill="#FB9400"/>
</svg>
