<svg width="25" height="24" viewBox="0 0 25 24" fill="none" xmlns="http://www.w3.org/2000/svg">
<path d="M9.83282 15.919L5.91382 12C5.72629 11.8126 5.47198 11.7073 5.20682 11.7073C4.94165 11.7073 4.68735 11.8126 4.49982 12C4.31235 12.1876 4.20703 12.4419 4.20703 12.707C4.20703 12.9722 4.31235 13.2265 4.49982 13.414L8.41882 17.333C8.60455 17.5188 8.82506 17.6662 9.06776 17.7668C9.31047 17.8674 9.57061 17.9191 9.83332 17.9191C10.096 17.9191 10.3562 17.8674 10.5989 17.7668C10.8416 17.6662 11.0621 17.5188 11.2478 17.333L20.4998 8.08105C20.6873 7.89352 20.7926 7.63922 20.7926 7.37405C20.7926 7.10889 20.6873 6.85458 20.4998 6.66705C20.3123 6.47958 20.058 6.37427 19.7928 6.37427C19.5277 6.37427 19.2733 6.47958 19.0858 6.66705L9.83282 15.919Z" fill="#FB9400"/>
</svg>
