<svg width="28" height="29" viewBox="0 0 28 29" fill="none" xmlns="http://www.w3.org/2000/svg">
<g clip-path="url(#clip0_234_1808)">
<path d="M2.46006 14.9509L6.47113 17.8804L4.94783 22.5979C4.70166 23.3296 4.69854 24.1212 4.93894 24.8548C5.17934 25.5884 5.65038 26.2246 6.28185 26.6687C6.9025 27.127 7.65462 27.3725 8.42614 27.3687C9.19767 27.3648 9.94729 27.1118 10.5633 26.6473L14.4854 23.7606L18.4086 26.6439C19.0281 27.0996 19.7762 27.3471 20.5452 27.3508C21.3143 27.3546 22.0647 27.1144 22.6887 26.6647C23.3126 26.2151 23.7779 25.5792 24.0176 24.8485C24.2574 24.1177 24.2593 23.3298 24.023 22.5979L22.4996 17.8804L26.5107 14.9509C27.1294 14.4986 27.5894 13.8623 27.8248 13.1329C28.0603 12.4035 28.0593 11.6183 27.8218 10.8896C27.5844 10.1608 27.1228 9.52577 26.5029 9.07506C25.8829 8.62435 25.1364 8.38108 24.37 8.37999H19.4429L17.9478 3.71994C17.7126 2.9864 17.2506 2.3465 16.6284 1.89249C16.0061 1.43849 15.2557 1.19385 14.4854 1.19385C13.7151 1.19385 12.9647 1.43849 12.3424 1.89249C11.7202 2.3465 11.2581 2.9864 11.023 3.71994L9.52789 8.37999H4.60531C3.83886 8.38108 3.09236 8.62435 2.47243 9.07506C1.85251 9.52577 1.39086 10.1608 1.15345 10.8896C0.916027 11.6183 0.914976 12.4035 1.15044 13.1329C1.38591 13.8623 1.84585 14.4986 2.46457 14.9509H2.46006Z" fill="#CECECE"/>
</g>
<defs>
<clipPath id="clip0_234_1808">
<rect width="27.0409" height="27.0409" fill="white" transform="translate(0.965332 0.979492)"/>
</clipPath>
</defs>
</svg>
