<svg width="20" height="15" viewBox="0 0 20 15" fill="none" xmlns="http://www.w3.org/2000/svg">
<path d="M10.0004 13.15C13.2313 13.15 15.8504 10.5308 15.8504 7.29997C15.8504 4.06909 13.2313 1.44995 10.0004 1.44995C6.76953 1.44995 4.15039 4.06909 4.15039 7.29997C4.15039 10.5308 6.76953 13.15 10.0004 13.15Z" stroke="#FF5050" stroke-width="1.5" stroke-linecap="round" stroke-linejoin="round"/>
<path d="M10 6.99192V4.96692" stroke="#FF5050" stroke-width="1.5" stroke-linecap="round" stroke-linejoin="round"/>
<path d="M3.57427 1C0.14191 4.49876 0.14191 10.1012 3.57427 13.6" stroke="#FF5050" stroke-width="1.5" stroke-linecap="round" stroke-linejoin="round"/>
<path d="M16.4258 1C19.8581 4.49876 19.8581 10.1012 16.4258 13.6" stroke="#FF5050" stroke-width="1.5" stroke-linecap="round" stroke-linejoin="round"/>
<path d="M10.0034 9.39411V9.43041M9.85645 9.40201C9.85645 9.48371 9.92235 9.55011 10.004 9.55011C10.0857 9.55011 10.1521 9.48371 10.1521 9.40201C10.1521 9.32031 10.0857 9.25391 10.004 9.25391C9.92235 9.25391 9.85645 9.32031 9.85645 9.40201Z" stroke="#FF5050" stroke-width="1.5" stroke-linecap="round" stroke-linejoin="round"/>
</svg>
