<svg width="20" height="20" viewBox="0 0 20 20" fill="none" xmlns="http://www.w3.org/2000/svg">
<path fill-rule="evenodd" clip-rule="evenodd" d="M8.16947 12.7106C8.68987 13.0633 9.3241 13.2766 9.99898 13.2766C11.7878 13.2766 13.2433 11.8081 13.2433 10.0032C13.2433 9.32221 13.0319 8.68228 12.6823 8.1572L11.796 9.05147C11.9423 9.33041 12.0236 9.65858 12.0236 10.0032C12.0236 11.1271 11.113 12.046 9.99898 12.046C9.65748 12.046 9.33223 11.964 9.05577 11.8163L8.16947 12.7106ZM15.3574 5.45801C16.5364 6.54097 17.5366 8.00132 18.2846 9.75703C18.3497 9.91291 18.3497 10.0934 18.2846 10.2411C16.5446 14.3268 13.4466 16.7717 9.99898 16.7717H9.99085C8.42154 16.7717 6.91728 16.2548 5.5919 15.3113L4.01446 16.9029C3.89249 17.026 3.738 17.0834 3.5835 17.0834C3.42901 17.0834 3.26639 17.026 3.15255 16.9029C2.94927 16.6978 2.91675 16.3696 3.07937 16.1317L3.10377 16.0989L15.1297 3.96484C15.146 3.94843 15.1623 3.93202 15.1704 3.91561L15.1704 3.91561C15.1867 3.8992 15.2029 3.8828 15.2111 3.86639L15.9754 3.09519C16.2193 2.85727 16.6015 2.85727 16.8373 3.09519C17.0812 3.33311 17.0812 3.72692 16.8373 3.96484L15.3574 5.45801ZM6.74872 10.0064C6.74872 10.2197 6.77311 10.433 6.80564 10.6299L3.79711 13.6654C2.98399 12.7138 2.27658 11.5652 1.71553 10.2443C1.65049 10.0966 1.65049 9.91611 1.71553 9.76023C3.4556 5.67452 6.55357 3.23786 9.99305 3.23786H10.0012C11.1639 3.23786 12.2942 3.51681 13.335 4.04188L10.6191 6.78209C10.424 6.74928 10.2126 6.72466 10.0012 6.72466C8.20419 6.72466 6.74872 8.19322 6.74872 10.0064Z" fill="#9E9E9E"/>
</svg>
