<svg width="20" height="20" viewBox="0 0 20 20" fill="none" xmlns="http://www.w3.org/2000/svg">
<g clip-path="url(#clip0_76_3320)">
<path d="M15.8333 0H4.16667C3.0616 0 2.00179 0.438987 1.22039 1.22039C0.438987 2.00179 0 3.0616 0 4.16667H0C0 4.82971 0.263392 5.46559 0.732233 5.93443C1.20107 6.40327 1.83696 6.66667 2.5 6.66667H17.5C18.1338 6.67441 18.7464 6.4387 19.2115 6.00814C19.6766 5.57758 19.9589 4.98499 20 4.3525C20.0245 3.79004 19.9349 3.22843 19.7366 2.70152C19.5382 2.17461 19.2353 1.69332 18.846 1.28663C18.4566 0.87994 17.989 0.556284 17.4713 0.335161C16.9535 0.114039 16.3963 2.81323e-05 15.8333 0V0Z" fill="#FB9400"/>
<path d="M18.333 8.33325H1.66634C1.44533 8.33325 1.23337 8.42105 1.07709 8.57733C0.920805 8.73361 0.833008 8.94557 0.833008 9.16659V15.8333C0.834331 16.9379 1.27374 17.997 2.05486 18.7781C2.83597 19.5592 3.89501 19.9986 4.99967 19.9999H14.9997C16.1043 19.9986 17.1634 19.5592 17.9445 18.7781C18.7256 17.997 19.165 16.9379 19.1663 15.8333V9.16659C19.1663 8.94557 19.0785 8.73361 18.9223 8.57733C18.766 8.42105 18.554 8.33325 18.333 8.33325ZM12.4997 12.4999H7.49967C7.27866 12.4999 7.0667 12.4121 6.91042 12.2558C6.75414 12.0996 6.66634 11.8876 6.66634 11.6666C6.66634 11.4456 6.75414 11.2336 6.91042 11.0773C7.0667 10.921 7.27866 10.8333 7.49967 10.8333H12.4997C12.7207 10.8333 12.9327 10.921 13.0889 11.0773C13.2452 11.2336 13.333 11.4456 13.333 11.6666C13.333 11.8876 13.2452 12.0996 13.0889 12.2558C12.9327 12.4121 12.7207 12.4999 12.4997 12.4999Z" fill="#FB9400"/>
</g>
<defs>
<clipPath id="clip0_76_3320">
<rect width="20" height="20" fill="white"/>
</clipPath>
</defs>
</svg>
