<svg width="20" height="20" viewBox="0 0 20 20" fill="none" xmlns="http://www.w3.org/2000/svg">
<path fill-rule="evenodd" clip-rule="evenodd" d="M2.9165 8.59821C2.9165 4.76499 6.11974 1.66675 9.99438 1.66675C13.8799 1.66675 17.0832 4.76499 17.0832 8.59821C17.0832 10.5298 16.3807 12.3231 15.2244 13.8431C13.9488 15.5197 12.3766 16.9805 10.607 18.1271C10.2019 18.3921 9.8364 18.4121 9.39188 18.1271C7.61212 16.9805 6.03991 15.5197 4.77525 13.8431C3.61816 12.3231 2.9165 10.5298 2.9165 8.59821ZM7.66169 8.81404C7.66169 10.0982 8.70955 11.1081 9.99438 11.1081C11.28 11.1081 12.338 10.0982 12.338 8.81404C12.338 7.53991 11.28 6.48077 9.99438 6.48077C8.70955 6.48077 7.66169 7.53991 7.66169 8.81404Z" fill="#212121"/>
</svg>
